<?xml version="1.0" encoding="iso-8859-1"?>
<!-- Generator: Adobe Illustrator 19.0.0, SVG Export Plug-In . SVG Version: 6.00 Build 0)  -->
<svg version="1.1" id="Layer_1" xmlns="http://www.w3.org/2000/svg" xmlns:xlink="http://www.w3.org/1999/xlink" x="0px" y="0px"
	 viewBox="0 0 512.001 512.001" style="enable-background:new 0 0 512.001 512.001;" xml:space="preserve">
<g>
	<g>
		<g>
			<polygon points="215.45,183.881 199.817,183.881 199.817,184.067 183.624,184.067 183.624,199.7 199.817,199.7 199.817,231.898 
				215.45,231.898 215.45,199.7 223.638,199.7 223.638,184.067 215.45,184.067 			"/>
			<rect x="295.846" y="183.884" width="15.633" height="48.014"/>
			<path d="M255.65,280.103c-4.516,0-8.19-3.674-8.19-8.19h-15.633c0,13.136,10.687,23.822,23.822,23.822
				c13.136,0,23.822-10.687,23.822-23.822h-15.633C263.839,276.429,260.166,280.103,255.65,280.103z"/>
			<rect x="287.665" y="136.047" width="40.02" height="15.633"/>
			<rect x="280.359" y="328.123" width="16.006" height="15.633"/>
			<path d="M471.177,391.516c-24.029-31.763-57.567-55.974-95.054-68.773c4.776-13.396,7.386-27.812,7.386-42.827v-48.203h0.187
				c17.548,0,31.825-14.277,31.825-31.825c0-17.548-14.277-31.825-31.825-31.825h-0.187V143.68h16.705V86.735
				c0-43.413-35.32-78.732-78.732-78.732c-3.802,0-7.307,1.261-10.151,3.366C305.037,4.393,295.931,0,285.818,0h-45.953
				c-74.916,0-135.863,60.948-135.863,135.863v7.816h23.789v24.382h-0.187c-17.548,0-31.825,14.277-31.825,31.825
				c0,17.548,14.277,31.825,31.825,31.825h0.187v48.203c0,15.095,2.637,29.585,7.462,43.04
				C98.017,335.81,64.717,359.93,40.82,391.519C14.405,426.438,0.443,468.1,0.443,512h15.633c0-40.468,12.868-78.868,37.211-111.049
				c22.269-29.44,53.392-51.837,88.159-63.586c21.075,41.728,64.351,70.412,114.205,70.412c49.933,0,93.265-28.776,114.304-70.611
				c35.006,11.693,66.358,34.175,88.756,63.783c24.346,32.182,37.214,70.583,37.214,111.052h15.633
				C511.557,468.098,497.594,426.435,471.177,391.516z M383.511,183.694h0.187c8.928,0,16.192,7.264,16.192,16.192
				c0,8.928-7.264,16.193-16.192,16.193h-0.187V183.694z M127.79,216.079h-0.187c-8.928,0-16.193-7.264-16.193-16.193
				c0-8.928,7.264-16.192,16.193-16.192h0.187V216.079z M119.886,128.046c4.041-62.666,56.309-112.414,119.979-112.414h45.953
				c9.479,0,17.315,7.081,18.548,16.226v8.364c-3.033,48.937-43.802,87.824-93.489,87.824H119.886z M255.65,392.143
				c-61.883,0-112.227-50.345-112.227-112.228V143.679h67.453c40.047,0,75.127-21.652,94.166-53.86
				c4.463,30.425,30.728,53.86,62.372,53.86h0.464v136.236h0.001C367.878,341.797,317.533,392.143,255.65,392.143z M367.414,128.045
				v0.001c-26.145,0-47.416-21.271-47.416-47.416V40.706c0.121-2.098,0.189-4.209,0.189-6.338c0-1.213-0.066-2.411-0.189-3.591
				v-5.658c0-0.818,0.666-1.484,1.485-1.484c34.793,0,63.099,28.306,63.099,63.099v41.311H367.414z"/>
			<path d="M274.425,415.187c-3.968-4.315-9.639-7.038-15.949-7.038h-4.254c-6.309,0-11.981,2.723-15.949,7.038l-88.876-26.662
				l10.862,43.447l-10.525,42.099l88.234-17.647c3.978,4.51,9.781,7.373,16.253,7.373h4.254c6.472,0,12.275-2.864,16.253-7.373
				l88.234,17.647l-10.524-42.099l10.861-43.447L274.425,415.187z M232.527,429.843v11.725l-61.634,12.327l5.482-21.924
				l-5.144-20.577l61.299,18.39C232.53,429.805,232.527,429.823,232.527,429.843z M264.539,442.101c0,3.343-2.719,6.062-6.062,6.062
				h-4.254c-3.343,0-6.062-2.719-6.062-6.062v-12.257c0-3.342,2.719-6.061,6.062-6.061h4.254c3.343,0,6.062,2.719,6.062,6.061
				V442.101z M280.171,441.569v-11.725c0-0.02-0.003-0.04-0.003-0.059l61.3-18.39l-5.144,20.577l5.481,21.924L280.171,441.569z"/>
			<polygon points="384.395,455.794 392.138,455.794 392.138,512 407.771,512 407.771,440.161 384.395,440.161 			"/>
			<polygon points="104.929,512 120.561,512 120.561,455.794 128.303,455.794 128.303,440.161 104.929,440.161 			"/>
			<rect x="248.343" y="472.174" width="16.006" height="15.633"/>
			<rect x="248.343" y="496.186" width="16.006" height="15.633"/>
		</g>
	</g>
</g>
<g>
</g>
<g>
</g>
<g>
</g>
<g>
</g>
<g>
</g>
<g>
</g>
<g>
</g>
<g>
</g>
<g>
</g>
<g>
</g>
<g>
</g>
<g>
</g>
<g>
</g>
<g>
</g>
<g>
</g>
</svg>
