<?xml version="1.0" encoding="UTF-8"?>
<svg xmlns="http://www.w3.org/2000/svg" xmlns:xlink="http://www.w3.org/1999/xlink" width="21px" height="21px" viewBox="0 0 21 21" version="1.1">
<g id="surface1">
<path style=" stroke:none;fill-rule:nonzero;fill:rgb(0%,0%,0%);fill-opacity:1;" d="M 20.710938 8.25 L 11.691406 2.972656 C 11.5 2.859375 11.261719 2.859375 11.066406 2.96875 C 10.875 3.082031 10.753906 3.285156 10.753906 3.507812 L 10.753906 5.890625 C 10.742188 5.894531 10.734375 5.898438 10.726562 5.898438 C 10.503906 5.960938 10.261719 6.03125 9.976562 6.117188 C 9.039062 6.394531 8.078125 6.753906 6.949219 7.25 C 5.96875 7.679688 5.011719 8.238281 4.101562 8.902344 C 3.449219 9.378906 2.835938 9.925781 2.28125 10.53125 C 0.765625 12.179688 -0.0625 14.371094 0.00390625 16.539062 C 0.015625 16.917969 0.0585938 17.28125 0.0976562 17.589844 C 0.136719 17.894531 0.394531 18.121094 0.703125 18.128906 C 0.707031 18.128906 0.710938 18.128906 0.714844 18.128906 C 1.015625 18.128906 1.277344 17.914062 1.328125 17.617188 C 1.496094 16.667969 1.765625 15.890625 2.148438 15.234375 C 2.625 14.417969 3.273438 13.734375 4.023438 13.253906 C 4.667969 12.839844 5.351562 12.523438 6.109375 12.285156 C 6.992188 12.003906 7.964844 11.828125 9.082031 11.75 C 9.535156 11.714844 10.023438 11.699219 10.617188 11.695312 C 10.632812 11.695312 10.671875 11.695312 10.722656 11.699219 L 10.722656 13.945312 C 10.722656 14.164062 10.84375 14.371094 11.035156 14.480469 C 11.226562 14.59375 11.460938 14.59375 11.65625 14.484375 L 20.703125 9.328125 C 20.894531 9.21875 21.015625 9.011719 21.015625 8.789062 C 21.019531 8.566406 20.902344 8.359375 20.710938 8.25 Z M 20.710938 8.25 "/>
</g>
</svg>
