<?xml version="1.0" encoding="UTF-8"?>
<svg xmlns="http://www.w3.org/2000/svg" xmlns:xlink="http://www.w3.org/1999/xlink" width="20px" height="20px" viewBox="0 0 20 20" version="1.1">
<g id="surface1">
<path style=" stroke:none;fill-rule:nonzero;fill:rgb(0%,0%,0%);fill-opacity:1;" d="M 14.867188 1.664062 C 13.15625 1.664062 11.640625 2.527344 10.734375 3.835938 C 10.734375 3.835938 10.429688 4.296875 9.945312 4.296875 C 9.460938 4.296875 9.152344 3.835938 9.152344 3.835938 C 8.25 2.527344 6.734375 1.664062 5.019531 1.664062 C 2.246094 1.664062 0 3.914062 0 6.683594 C 0 7.339844 0.128906 7.964844 0.355469 8.535156 C 1.761719 12.902344 8.050781 18.035156 9.945312 18.222656 C 11.835938 18.035156 18.125 12.902344 19.53125 8.535156 C 19.757812 7.964844 19.886719 7.339844 19.886719 6.683594 C 19.886719 3.914062 17.640625 1.664062 14.867188 1.664062 Z M 14.867188 1.664062 "/>
</g>
</svg>
