<?xml version="1.0" encoding="UTF-8"?>
<svg xmlns="http://www.w3.org/2000/svg" xmlns:xlink="http://www.w3.org/1999/xlink" width="21px" height="21px" viewBox="0 0 21 21" version="1.1">
<g id="surface1">
<path style=" stroke:none;fill-rule:nonzero;fill:rgb(0%,0%,0%);fill-opacity:1;" d="M 10.5 1.3125 C 4.699219 1.3125 0 5.132812 0 9.84375 C 0 11.878906 0.878906 13.742188 2.335938 15.203125 C 1.824219 17.273438 0.109375 19.113281 0.0898438 19.132812 C 0 19.226562 -0.0234375 19.367188 0.0273438 19.492188 C 0.0820312 19.613281 0.195312 19.6875 0.328125 19.6875 C 3.046875 19.6875 5.085938 18.382812 6.09375 17.578125 C 7.4375 18.082031 8.925781 18.375 10.5 18.375 C 16.300781 18.375 21 14.554688 21 9.84375 C 21 5.132812 16.300781 1.3125 10.5 1.3125 Z M 10.5 1.3125 "/>
</g>
</svg>
